<svg width="24" height="24" viewBox="0 0 24 24" fill="none" xmlns="http://www.w3.org/2000/svg">
<rect width="24" height="24" rx="4" fill="white"/>
<path d="M10.7378 3.93625C11.8172 1.8432 14.2403 1.1051 16.1489 2.28879L16.3237 2.405C18.0972 3.63899 18.6955 6.19482 17.6499 8.22238L13.6079 16.0603L13.5015 16.2527C12.9444 17.1922 12.0189 17.8009 10.9927 17.8923L9.05324 18.0652L8.9966 18.0671L7.02199 21.9206C6.8502 22.2557 6.46326 22.3745 6.15773 22.1863C5.85222 21.9978 5.74374 21.5731 5.91554 21.238L7.92628 17.3142L6.5923 14.8532C6.15134 14.0397 6.11433 13.0417 6.48488 12.196L6.56398 12.029L10.7378 3.93625ZM10.98 14.2175C10.9766 14.2188 10.9726 14.2183 10.9693 14.2195L9.7466 16.6052L10.8902 16.5046C11.565 16.4445 12.1691 16.0219 12.5025 15.3757L13.606 13.2351L10.98 14.2175ZM7.66945 12.7146C7.44047 13.1588 7.44536 13.7037 7.68312 14.1423L8.64406 15.9148L10.6968 11.9099L9.88234 8.42258L7.66945 12.7146ZM15.5239 3.5007C14.2256 2.69553 12.5776 3.19715 11.8433 4.62082L10.7837 6.67453C10.7849 6.67919 10.7875 6.6835 10.7886 6.6882L11.5972 10.155L13.8609 5.74289C14.0328 5.40835 14.4198 5.28912 14.7251 5.47727C15.0305 5.66562 15.1388 6.09051 14.9673 6.42551L11.9487 12.3083C11.935 12.3405 11.9199 12.3716 11.9019 12.4011L14.5454 11.4128L16.5454 7.53684C17.2795 6.11311 16.8221 4.3059 15.5239 3.5007Z" fill="black"/>
</svg>
